<svg xmlns="http://www.w3.org/2000/svg" viewBox="0 0 1200 800" width="1200" height="800" role="img"><defs><linearGradient id="bsky13" x1="0" y1="0" x2="0" y2="1">
    <stop offset="0" stop-color="#dfe7d4"/><stop offset="1" stop-color="#edf0ec"/>
  </linearGradient></defs><rect width="1200" height="800" fill="url(#bsky13)"/><rect width="1200" height="272" fill="#edf0ec"/><rect y="260" width="1200" height="12" fill="#5b665f" opacity="0.3"/><rect y="272" width="1200" height="528" fill="#7c6f52"/><circle cx="0" cy="647" r="11" fill="#6a5e44" opacity="0.6"/><circle cx="1155" cy="761" r="11" fill="#8a7c5c" opacity="0.6"/><circle cx="734" cy="708" r="11" fill="#6a5e44" opacity="0.6"/><circle cx="181" cy="792" r="11" fill="#8a7c5c" opacity="0.6"/><circle cx="963" cy="509" r="10" fill="#6a5e44" opacity="0.6"/><circle cx="1063" cy="655" r="4" fill="#8a7c5c" opacity="0.6"/><circle cx="1181" cy="731" r="7" fill="#6a5e44" opacity="0.6"/><circle cx="1114" cy="619" r="4" fill="#8a7c5c" opacity="0.6"/><circle cx="0" cy="721" r="5" fill="#6a5e44" opacity="0.6"/><circle cx="601" cy="487" r="4" fill="#8a7c5c" opacity="0.6"/><circle cx="1001" cy="752" r="7" fill="#6a5e44" opacity="0.6"/><circle cx="740" cy="572" r="6" fill="#8a7c5c" opacity="0.6"/><circle cx="269" cy="712" r="12" fill="#6a5e44" opacity="0.6"/><circle cx="899" cy="384" r="11" fill="#8a7c5c" opacity="0.6"/><circle cx="474" cy="691" r="8" fill="#6a5e44" opacity="0.6"/><circle cx="1134" cy="384" r="8" fill="#8a7c5c" opacity="0.6"/><circle cx="654" cy="628" r="13" fill="#6a5e44" opacity="0.6"/><circle cx="253" cy="320" r="9" fill="#8a7c5c" opacity="0.6"/><circle cx="805" cy="359" r="6" fill="#6a5e44" opacity="0.6"/><circle cx="803" cy="705" r="11" fill="#8a7c5c" opacity="0.6"/><circle cx="913" cy="567" r="10" fill="#6a5e44" opacity="0.6"/><circle cx="177" cy="708" r="7" fill="#8a7c5c" opacity="0.6"/><circle cx="552" cy="367" r="6" fill="#6a5e44" opacity="0.6"/><circle cx="1150" cy="541" r="13" fill="#8a7c5c" opacity="0.6"/><circle cx="722" cy="736" r="12" fill="#6a5e44" opacity="0.6"/><circle cx="45" cy="395" r="10" fill="#8a7c5c" opacity="0.6"/><circle cx="1080" cy="279" r="11" fill="#6a5e44" opacity="0.6"/><circle cx="756" cy="381" r="12" fill="#8a7c5c" opacity="0.6"/><circle cx="345" cy="369" r="9" fill="#6a5e44" opacity="0.6"/><circle cx="516" cy="796" r="9" fill="#8a7c5c" opacity="0.6"/><circle cx="38" cy="791" r="9" fill="#6a5e44" opacity="0.6"/><circle cx="807" cy="633" r="13" fill="#8a7c5c" opacity="0.6"/><circle cx="428" cy="768" r="8" fill="#6a5e44" opacity="0.6"/><circle cx="480" cy="792" r="4" fill="#8a7c5c" opacity="0.6"/><circle cx="881" cy="440" r="13" fill="#6a5e44" opacity="0.6"/><circle cx="518" cy="500" r="7" fill="#8a7c5c" opacity="0.6"/><circle cx="1137" cy="526" r="7" fill="#6a5e44" opacity="0.6"/><circle cx="873" cy="383" r="9" fill="#8a7c5c" opacity="0.6"/><circle cx="148" cy="772" r="4" fill="#6a5e44" opacity="0.6"/><circle cx="919" cy="426" r="10" fill="#8a7c5c" opacity="0.6"/><path d="M219.44925180610701 575.6836686747538 q6 -22 12 0" stroke="#7e8a55" stroke-width="3" fill="none" opacity="0.7"/><path d="M46.79377490970948 484.13458660716867 q6 -22 12 0" stroke="#7e8a55" stroke-width="3" fill="none" opacity="0.7"/><path d="M419.27013658884454 405.3720442146864 q6 -22 12 0" stroke="#7e8a55" stroke-width="3" fill="none" opacity="0.7"/><path d="M231.1978704441329 351.1825501346879 q6 -22 12 0" stroke="#7e8a55" stroke-width="3" fill="none" opacity="0.7"/><path d="M421.9761775908881 355.75095957319763 q6 -22 12 0" stroke="#7e8a55" stroke-width="3" fill="none" opacity="0.7"/><path d="M637.0543294758788 529.4279329550583 q6 -22 12 0" stroke="#7e8a55" stroke-width="3" fill="none" opacity="0.7"/><path d="M1145.2269293112806 719.0353878974148 q6 -22 12 0" stroke="#7e8a55" stroke-width="3" fill="none" opacity="0.7"/><path d="M18.709377953181686 312.1338325367001 q6 -22 12 0" stroke="#7e8a55" stroke-width="3" fill="none" opacity="0.7"/><path d="M595.9601067919099 749.1286634258594 q6 -22 12 0" stroke="#7e8a55" stroke-width="3" fill="none" opacity="0.7"/><path d="M760.1113214903098 786.256819369391 q6 -22 12 0" stroke="#7e8a55" stroke-width="3" fill="none" opacity="0.7"/><path d="M805.694316516488 501.31674243477954 q6 -22 12 0" stroke="#7e8a55" stroke-width="3" fill="none" opacity="0.7"/><path d="M275.8797622639126 753.1332133752915 q6 -22 12 0" stroke="#7e8a55" stroke-width="3" fill="none" opacity="0.7"/><path d="M939.5595145130342 448.3555745344402 q6 -22 12 0" stroke="#7e8a55" stroke-width="3" fill="none" opacity="0.7"/><path d="M1012.3884345462492 463.15405880620426 q6 -22 12 0" stroke="#7e8a55" stroke-width="3" fill="none" opacity="0.7"/><g>
      <circle cx="192" cy="260.4894268604412" r="28.776432848897034" fill="#6c7752"/>
      <circle cx="177.61178357555147" cy="269.1223567151103" r="20.143502994227923" fill="#5c6647"/>
      <circle cx="206.38821642444853" cy="269.1223567151103" r="20.143502994227923" fill="#6c7752"/>
    </g><g>
      <circle cx="456" cy="260.19724343502764" r="29.506891412430857" fill="#6c7752"/>
      <circle cx="441.2465542937846" cy="269.04931085875694" r="20.654823988701597" fill="#5c6647"/>
      <circle cx="470.7534457062154" cy="269.04931085875694" r="20.654823988701597" fill="#6c7752"/>
    </g><g>
      <circle cx="720" cy="261.47041250982807" r="26.323968725429832" fill="#6c7752"/>
      <circle cx="706.8380156372851" cy="269.367603127457" r="18.42677810780088" fill="#5c6647"/>
      <circle cx="733.1619843627149" cy="269.367603127457" r="18.42677810780088" fill="#6c7752"/>
    </g><g>
      <circle cx="984.0000000000001" cy="259.62305268031685" r="30.94236829920782" fill="#6c7752"/>
      <circle cx="968.5288158503962" cy="268.90576317007924" r="21.659657809445473" fill="#5c6647"/>
      <circle cx="999.471184149604" cy="268.90576317007924" r="21.659657809445473" fill="#6c7752"/>
    </g></svg>
