<svg xmlns="http://www.w3.org/2000/svg" viewBox="0 0 1200 800" width="1200" height="800" role="img"><defs><linearGradient id="bsky13" x1="0" y1="0" x2="0" y2="1">
    <stop offset="0" stop-color="#dfe7d4"/><stop offset="1" stop-color="#edf0ec"/>
  </linearGradient></defs><rect width="1200" height="800" fill="url(#bsky13)"/><rect width="1200" height="272" fill="#edf0ec"/><rect y="260" width="1200" height="12" fill="#5b665f" opacity="0.3"/><defs><linearGradient id="mulch13" x1="0" y1="0" x2="0" y2="1">
      <stop offset="0" stop-color="#7a5238"/><stop offset="1" stop-color="#5a3a28"/></linearGradient></defs><rect y="272" width="1200" height="528" fill="url(#mulch13)"/><line x1="0" y1="647" x2="12" y2="651" stroke="#8a6043" stroke-width="2" opacity="0.6"/><line x1="1111" y1="719" x2="1121" y2="722" stroke="#6a4730" stroke-width="2" opacity="0.6"/><line x1="997" y1="352" x2="1011" y2="355" stroke="#6a4730" stroke-width="2" opacity="0.6"/><line x1="963" y1="509" x2="973" y2="513" stroke="#8a6043" stroke-width="2" opacity="0.6"/><line x1="870" y1="325" x2="883" y2="329" stroke="#6a4730" stroke-width="2" opacity="0.6"/><line x1="513" y1="762" x2="523" y2="759" stroke="#6a4730" stroke-width="2" opacity="0.6"/><line x1="0" y1="721" x2="6" y2="721" stroke="#8a6043" stroke-width="2" opacity="0.6"/><line x1="490" y1="333" x2="501" y2="337" stroke="#6a4730" stroke-width="2" opacity="0.6"/><line x1="494" y1="598" x2="504" y2="596" stroke="#6a4730" stroke-width="2" opacity="0.6"/><line x1="269" y1="712" x2="282" y2="715" stroke="#8a6043" stroke-width="2" opacity="0.6"/><line x1="254" y1="680" x2="262" y2="682" stroke="#6a4730" stroke-width="2" opacity="0.6"/><line x1="564" y1="771" x2="570" y2="771" stroke="#6a4730" stroke-width="2" opacity="0.6"/><line x1="654" y1="628" x2="668" y2="624" stroke="#8a6043" stroke-width="2" opacity="0.6"/><line x1="109" y1="575" x2="120" y2="572" stroke="#6a4730" stroke-width="2" opacity="0.6"/><line x1="390" y1="626" x2="402" y2="628" stroke="#6a4730" stroke-width="2" opacity="0.6"/><line x1="913" y1="567" x2="923" y2="564" stroke="#8a6043" stroke-width="2" opacity="0.6"/><line x1="992" y1="495" x2="1000" y2="492" stroke="#6a4730" stroke-width="2" opacity="0.6"/><line x1="385" y1="778" x2="394" y2="782" stroke="#6a4730" stroke-width="2" opacity="0.6"/><line x1="722" y1="736" x2="734" y2="732" stroke="#8a6043" stroke-width="2" opacity="0.6"/><line x1="279" y1="616" x2="291" y2="611" stroke="#6a4730" stroke-width="2" opacity="0.6"/><line x1="914" y1="605" x2="920" y2="607" stroke="#6a4730" stroke-width="2" opacity="0.6"/><line x1="345" y1="369" x2="354" y2="369" stroke="#8a6043" stroke-width="2" opacity="0.6"/><line x1="1192" y1="563" x2="1196" y2="565" stroke="#6a4730" stroke-width="2" opacity="0.6"/><line x1="676" y1="627" x2="686" y2="631" stroke="#6a4730" stroke-width="2" opacity="0.6"/><line x1="428" y1="768" x2="437" y2="767" stroke="#8a6043" stroke-width="2" opacity="0.6"/><line x1="1182" y1="316" x2="1193" y2="314" stroke="#6a4730" stroke-width="2" opacity="0.6"/><line x1="1198" y1="500" x2="1206" y2="499" stroke="#6a4730" stroke-width="2" opacity="0.6"/><line x1="1137" y1="526" x2="1145" y2="527" stroke="#8a6043" stroke-width="2" opacity="0.6"/><line x1="252" y1="578" x2="256" y2="580" stroke="#6a4730" stroke-width="2" opacity="0.6"/><line x1="92" y1="676" x2="99" y2="677" stroke="#6a4730" stroke-width="2" opacity="0.6"/><line x1="219" y1="573" x2="224" y2="572" stroke="#8a6043" stroke-width="2" opacity="0.6"/><line x1="419" y1="392" x2="425" y2="390" stroke="#6a4730" stroke-width="2" opacity="0.6"/><line x1="422" y1="340" x2="431" y2="339" stroke="#6a4730" stroke-width="2" opacity="0.6"/><line x1="1145" y1="725" x2="1149" y2="723" stroke="#8a6043" stroke-width="2" opacity="0.6"/><line x1="596" y1="757" x2="606" y2="761" stroke="#6a4730" stroke-width="2" opacity="0.6"/><line x1="806" y1="494" x2="812" y2="496" stroke="#6a4730" stroke-width="2" opacity="0.6"/><line x1="940" y1="438" x2="952" y2="436" stroke="#8a6043" stroke-width="2" opacity="0.6"/><line x1="333" y1="457" x2="337" y2="457" stroke="#6a4730" stroke-width="2" opacity="0.6"/><line x1="766" y1="587" x2="771" y2="586" stroke="#6a4730" stroke-width="2" opacity="0.6"/><line x1="777" y1="518" x2="782" y2="518" stroke="#8a6043" stroke-width="2" opacity="0.6"/><line x1="266" y1="374" x2="271" y2="375" stroke="#6a4730" stroke-width="2" opacity="0.6"/><line x1="443" y1="653" x2="452" y2="656" stroke="#6a4730" stroke-width="2" opacity="0.6"/><line x1="381" y1="448" x2="392" y2="449" stroke="#8a6043" stroke-width="2" opacity="0.6"/><line x1="238" y1="329" x2="251" y2="332" stroke="#6a4730" stroke-width="2" opacity="0.6"/><line x1="348" y1="671" x2="353" y2="673" stroke="#6a4730" stroke-width="2" opacity="0.6"/><line x1="653" y1="737" x2="661" y2="734" stroke="#8a6043" stroke-width="2" opacity="0.6"/><line x1="566" y1="693" x2="578" y2="697" stroke="#6a4730" stroke-width="2" opacity="0.6"/><line x1="302" y1="373" x2="307" y2="373" stroke="#6a4730" stroke-width="2" opacity="0.6"/><line x1="966" y1="604" x2="977" y2="599" stroke="#8a6043" stroke-width="2" opacity="0.6"/><line x1="441" y1="391" x2="452" y2="393" stroke="#6a4730" stroke-width="2" opacity="0.6"/><line x1="1148" y1="340" x2="1160" y2="339" stroke="#6a4730" stroke-width="2" opacity="0.6"/><line x1="80" y1="674" x2="94" y2="676" stroke="#8a6043" stroke-width="2" opacity="0.6"/><line x1="414" y1="474" x2="423" y2="473" stroke="#6a4730" stroke-width="2" opacity="0.6"/><line x1="865" y1="529" x2="872" y2="528" stroke="#6a4730" stroke-width="2" opacity="0.6"/><line x1="491" y1="370" x2="501" y2="368" stroke="#8a6043" stroke-width="2" opacity="0.6"/><line x1="622" y1="708" x2="626" y2="709" stroke="#6a4730" stroke-width="2" opacity="0.6"/><line x1="329" y1="460" x2="340" y2="463" stroke="#6a4730" stroke-width="2" opacity="0.6"/><line x1="713" y1="756" x2="720" y2="756" stroke="#8a6043" stroke-width="2" opacity="0.6"/><line x1="86" y1="699" x2="98" y2="703" stroke="#6a4730" stroke-width="2" opacity="0.6"/><line x1="962" y1="694" x2="967" y2="694" stroke="#6a4730" stroke-width="2" opacity="0.6"/><line x1="551" y1="650" x2="556" y2="650" stroke="#8a6043" stroke-width="2" opacity="0.6"/><line x1="896" y1="668" x2="909" y2="673" stroke="#6a4730" stroke-width="2" opacity="0.6"/><line x1="236" y1="279" x2="239" y2="277" stroke="#6a4730" stroke-width="2" opacity="0.6"/><line x1="64" y1="512" x2="70" y2="512" stroke="#8a6043" stroke-width="2" opacity="0.6"/><line x1="1047" y1="719" x2="1057" y2="723" stroke="#6a4730" stroke-width="2" opacity="0.6"/><line x1="259" y1="680" x2="265" y2="678" stroke="#6a4730" stroke-width="2" opacity="0.6"/><line x1="1118" y1="369" x2="1130" y2="372" stroke="#8a6043" stroke-width="2" opacity="0.6"/><line x1="65" y1="301" x2="72" y2="300" stroke="#6a4730" stroke-width="2" opacity="0.6"/><line x1="82" y1="536" x2="96" y2="538" stroke="#6a4730" stroke-width="2" opacity="0.6"/><line x1="119" y1="372" x2="128" y2="374" stroke="#8a6043" stroke-width="2" opacity="0.6"/><line x1="626" y1="350" x2="635" y2="352" stroke="#6a4730" stroke-width="2" opacity="0.6"/><line x1="207" y1="619" x2="219" y2="616" stroke="#6a4730" stroke-width="2" opacity="0.6"/><line x1="976" y1="430" x2="987" y2="426" stroke="#8a6043" stroke-width="2" opacity="0.6"/><line x1="1012" y1="453" x2="1016" y2="453" stroke="#6a4730" stroke-width="2" opacity="0.6"/><line x1="1023" y1="405" x2="1027" y2="404" stroke="#6a4730" stroke-width="2" opacity="0.6"/><line x1="61" y1="688" x2="72" y2="686" stroke="#8a6043" stroke-width="2" opacity="0.6"/><line x1="880" y1="682" x2="893" y2="678" stroke="#6a4730" stroke-width="2" opacity="0.6"/><line x1="117" y1="550" x2="130" y2="554" stroke="#6a4730" stroke-width="2" opacity="0.6"/><line x1="241" y1="612" x2="248" y2="610" stroke="#8a6043" stroke-width="2" opacity="0.6"/><line x1="1032" y1="326" x2="1038" y2="324" stroke="#6a4730" stroke-width="2" opacity="0.6"/><line x1="687" y1="398" x2="697" y2="395" stroke="#6a4730" stroke-width="2" opacity="0.6"/><line x1="911" y1="732" x2="916" y2="732" stroke="#8a6043" stroke-width="2" opacity="0.6"/><line x1="882" y1="589" x2="890" y2="591" stroke="#6a4730" stroke-width="2" opacity="0.6"/><line x1="131" y1="699" x2="137" y2="697" stroke="#6a4730" stroke-width="2" opacity="0.6"/><line x1="757" y1="281" x2="769" y2="279" stroke="#8a6043" stroke-width="2" opacity="0.6"/><line x1="880" y1="690" x2="891" y2="689" stroke="#6a4730" stroke-width="2" opacity="0.6"/><line x1="444" y1="421" x2="458" y2="418" stroke="#6a4730" stroke-width="2" opacity="0.6"/><line x1="216" y1="792" x2="228" y2="793" stroke="#8a6043" stroke-width="2" opacity="0.6"/><line x1="269" y1="733" x2="280" y2="737" stroke="#6a4730" stroke-width="2" opacity="0.6"/><line x1="854" y1="520" x2="858" y2="521" stroke="#6a4730" stroke-width="2" opacity="0.6"/><g>
      <circle cx="192" cy="252.87958722975085" r="47.80103192562285" fill="#496e59"/>
      <circle cx="168.09948403718857" cy="267.2198968074377" r="33.46072234793599" fill="#6a8a2d"/>
      <circle cx="215.90051596281143" cy="267.2198968074377" r="33.46072234793599" fill="#496e59"/>
    </g><circle cx="177" cy="256" r="3" fill="#7b9e36"/><circle cx="185" cy="234" r="3" fill="#7b9e36"/><circle cx="213" cy="251" r="3" fill="#7b9e36"/><circle cx="197" cy="239" r="3" fill="#7b9e36"/><g>
      <circle cx="456" cy="252.11328082164437" r="49.716797945889084" fill="#496e59"/>
      <circle cx="431.14160102705546" cy="267.0283202054111" r="34.80175856212236" fill="#6a8a2d"/>
      <circle cx="480.85839897294454" cy="267.0283202054111" r="34.80175856212236" fill="#496e59"/>
    </g><circle cx="432" cy="273" r="3" fill="#7b9e36"/><circle cx="462" cy="242" r="3" fill="#7b9e36"/><circle cx="436" cy="237" r="3" fill="#7b9e36"/><circle cx="441" cy="261" r="3" fill="#7b9e36"/><g>
      <circle cx="720" cy="253.71410192629048" r="45.71474518427381" fill="#496e59"/>
      <circle cx="697.1426274078631" cy="267.4285254815726" r="32.000321628991664" fill="#6a8a2d"/>
      <circle cx="742.8573725921369" cy="267.4285254815726" r="32.000321628991664" fill="#496e59"/>
    </g><circle cx="732" cy="272" r="3" fill="#7b9e36"/><circle cx="699" cy="260" r="3" fill="#7b9e36"/><circle cx="734" cy="241" r="3" fill="#7b9e36"/><circle cx="700" cy="251" r="3" fill="#7b9e36"/><g>
      <circle cx="984.0000000000001" cy="255.84432199590108" r="40.38919501024726" fill="#496e59"/>
      <circle cx="963.8054024948765" cy="267.96108049897526" r="28.272436507173083" fill="#6a8a2d"/>
      <circle cx="1004.1945975051237" cy="267.96108049897526" r="28.272436507173083" fill="#496e59"/>
    </g><circle cx="969" cy="266" r="3" fill="#7b9e36"/><circle cx="971" cy="264" r="3" fill="#7b9e36"/><circle cx="991" cy="239" r="3" fill="#7b9e36"/><circle cx="988" cy="266" r="3" fill="#7b9e36"/></svg>
