<svg xmlns="http://www.w3.org/2000/svg" viewBox="0 0 1200 800" width="1200" height="800" role="img"><defs>
    <linearGradient id="sky11" x1="0" y1="0" x2="0" y2="1">
      <stop offset="0" stop-color="#cfd3c6"/>
      <stop offset="1" stop-color="#e6e3d6"/>
    </linearGradient>
    <linearGradient id="grass11" x1="0" y1="0" x2="0" y2="1">
      <stop offset="0" stop-color="#5f6a4a"/>
      <stop offset="1" stop-color="#79835f"/>
    </linearGradient>
  </defs><rect width="1200" height="800" fill="url(#sky11)"/><path d="M0 336 L0.0 328.0 L120.0 314.6 L240.0 318.7 L360.0 326.6 L480.0 302.2 L600.0 315.7 L720.0 312.5 L840.0 314.0 L960.0 313.8 L1080.0 319.6 L1200.0 321.4 L1200 336 Z" fill="#6f7a5c" opacity="0.55"/><rect y="336" width="1200" height="464" fill="url(#grass11)"/><path d="M300 336 L900 336 L980 387.55555555555554 L220 387.55555555555554 Z" fill="#8a9472" opacity="0.5"/><path d="M140.00000000000006 439.1111111111111 L1060 439.1111111111111 L1140 490.66666666666663 L60 490.66666666666663 Z" fill="#8a9472" opacity="0.5"/><path d="M-19.999999999999886 542.2222222222222 L1220 542.2222222222222 L1300 593.7777777777778 L-99.99999999999989 593.7777777777778 Z" fill="#8a9472" opacity="0.5"/><path d="M-179.9999999999999 645.3333333333333 L1380 645.3333333333333 L1460 696.8888888888889 L-260 696.8888888888889 Z" fill="#8a9472" opacity="0.5"/><path d="M-340 748.4444444444443 L1540 748.4444444444443 L1620 800 L-420 800 Z" fill="#8a9472" opacity="0.5"/><circle cx="856" cy="401" r="14" fill="#566143" opacity="0.35"/><circle cx="706" cy="720" r="14" fill="#b7a86a" opacity="0.35"/><circle cx="102" cy="437" r="22" fill="#566143" opacity="0.35"/><circle cx="711" cy="593" r="17" fill="#b7a86a" opacity="0.35"/><circle cx="282" cy="479" r="24" fill="#566143" opacity="0.35"/><circle cx="14" cy="426" r="19" fill="#b7a86a" opacity="0.35"/><circle cx="856" cy="342" r="14" fill="#566143" opacity="0.35"/><circle cx="1064" cy="578" r="8" fill="#b7a86a" opacity="0.35"/><circle cx="733" cy="781" r="13" fill="#566143" opacity="0.35"/><circle cx="1082" cy="345" r="22" fill="#b7a86a" opacity="0.35"/><circle cx="970" cy="776" r="12" fill="#566143" opacity="0.35"/><circle cx="200" cy="707" r="27" fill="#b7a86a" opacity="0.35"/><circle cx="878" cy="800" r="24" fill="#566143" opacity="0.35"/><circle cx="518" cy="454" r="20" fill="#b7a86a" opacity="0.35"/><circle cx="29" cy="778" r="24" fill="#566143" opacity="0.35"/><circle cx="422" cy="742" r="6" fill="#b7a86a" opacity="0.35"/><circle cx="799" cy="777" r="18" fill="#566143" opacity="0.35"/><circle cx="815" cy="572" r="25" fill="#b7a86a" opacity="0.35"/><circle cx="520" cy="766" r="28" fill="#566143" opacity="0.35"/><circle cx="510" cy="712" r="17" fill="#b7a86a" opacity="0.35"/><circle cx="271" cy="358" r="7" fill="#566143" opacity="0.35"/><circle cx="993" cy="387" r="14" fill="#b7a86a" opacity="0.35"/><g opacity="0.55">
      <rect x="96" y="208" width="312" height="128" fill="#25352c"/>
      <path d="M86 208 L252 144 L418 208 Z" fill="#1a2620"/>
      <rect x="152.16" y="252.8" width="56.16" height="57.6" fill="#9aa089" opacity="0.85"/>
      <rect x="283.2" y="252.8" width="56.16" height="57.6" fill="#9aa089" opacity="0.85"/>
    </g><g opacity="0.6">
      <rect x="1026" y="306" width="12" height="494" fill="#5a3a28"/>
      <circle cx="1032" cy="266" r="58" fill="#496e59"/>
      <circle cx="992" cy="296" r="42" fill="#5f6a4a"/>
      <circle cx="1070" cy="291" r="40" fill="#67724f"/>
    </g></svg>
