<svg xmlns="http://www.w3.org/2000/svg" viewBox="0 0 800 600" width="800" height="600" role="img"><defs><linearGradient id="bsky23" x1="0" y1="0" x2="0" y2="1">
    <stop offset="0" stop-color="#dfe7d4"/><stop offset="1" stop-color="#edf0ec"/>
  </linearGradient></defs><rect width="800" height="600" fill="url(#bsky23)"/><rect width="800" height="204.00000000000003" fill="#edf0ec"/><rect y="192.00000000000003" width="800" height="12" fill="#5b665f" opacity="0.3"/><defs><linearGradient id="mulch23" x1="0" y1="0" x2="0" y2="1">
      <stop offset="0" stop-color="#7a5238"/><stop offset="1" stop-color="#5a3a28"/></linearGradient></defs><rect y="204.00000000000003" width="800" height="396" fill="url(#mulch23)"/><line x1="0" y1="214" x2="8" y2="214" stroke="#8a6043" stroke-width="2" opacity="0.6"/><line x1="203" y1="218" x2="208" y2="219" stroke="#6a4730" stroke-width="2" opacity="0.6"/><line x1="499" y1="401" x2="510" y2="405" stroke="#6a4730" stroke-width="2" opacity="0.6"/><line x1="90" y1="519" x2="96" y2="517" stroke="#8a6043" stroke-width="2" opacity="0.6"/><line x1="349" y1="274" x2="361" y2="274" stroke="#6a4730" stroke-width="2" opacity="0.6"/><line x1="482" y1="519" x2="491" y2="518" stroke="#6a4730" stroke-width="2" opacity="0.6"/><line x1="369" y1="251" x2="374" y2="249" stroke="#8a6043" stroke-width="2" opacity="0.6"/><line x1="454" y1="254" x2="468" y2="255" stroke="#6a4730" stroke-width="2" opacity="0.6"/><line x1="29" y1="240" x2="42" y2="241" stroke="#6a4730" stroke-width="2" opacity="0.6"/><line x1="441" y1="361" x2="452" y2="360" stroke="#8a6043" stroke-width="2" opacity="0.6"/><line x1="546" y1="441" x2="556" y2="440" stroke="#6a4730" stroke-width="2" opacity="0.6"/><line x1="788" y1="470" x2="797" y2="469" stroke="#6a4730" stroke-width="2" opacity="0.6"/><line x1="218" y1="219" x2="227" y2="223" stroke="#8a6043" stroke-width="2" opacity="0.6"/><line x1="375" y1="332" x2="381" y2="334" stroke="#6a4730" stroke-width="2" opacity="0.6"/><line x1="152" y1="460" x2="165" y2="459" stroke="#6a4730" stroke-width="2" opacity="0.6"/><line x1="646" y1="443" x2="658" y2="442" stroke="#8a6043" stroke-width="2" opacity="0.6"/><line x1="554" y1="347" x2="559" y2="345" stroke="#6a4730" stroke-width="2" opacity="0.6"/><line x1="639" y1="480" x2="648" y2="482" stroke="#6a4730" stroke-width="2" opacity="0.6"/><line x1="298" y1="211" x2="304" y2="212" stroke="#8a6043" stroke-width="2" opacity="0.6"/><line x1="514" y1="264" x2="523" y2="266" stroke="#6a4730" stroke-width="2" opacity="0.6"/><line x1="32" y1="554" x2="39" y2="556" stroke="#6a4730" stroke-width="2" opacity="0.6"/><line x1="776" y1="394" x2="789" y2="396" stroke="#8a6043" stroke-width="2" opacity="0.6"/><line x1="790" y1="377" x2="797" y2="374" stroke="#6a4730" stroke-width="2" opacity="0.6"/><line x1="59" y1="523" x2="69" y2="523" stroke="#6a4730" stroke-width="2" opacity="0.6"/><line x1="382" y1="344" x2="388" y2="345" stroke="#8a6043" stroke-width="2" opacity="0.6"/><line x1="286" y1="506" x2="296" y2="503" stroke="#6a4730" stroke-width="2" opacity="0.6"/><line x1="428" y1="263" x2="437" y2="264" stroke="#6a4730" stroke-width="2" opacity="0.6"/><line x1="234" y1="388" x2="247" y2="385" stroke="#8a6043" stroke-width="2" opacity="0.6"/><line x1="604" y1="397" x2="612" y2="396" stroke="#6a4730" stroke-width="2" opacity="0.6"/><line x1="540" y1="558" x2="547" y2="561" stroke="#6a4730" stroke-width="2" opacity="0.6"/><line x1="74" y1="329" x2="79" y2="329" stroke="#8a6043" stroke-width="2" opacity="0.6"/><line x1="495" y1="333" x2="504" y2="333" stroke="#6a4730" stroke-width="2" opacity="0.6"/><line x1="128" y1="324" x2="136" y2="327" stroke="#6a4730" stroke-width="2" opacity="0.6"/><line x1="366" y1="470" x2="378" y2="474" stroke="#8a6043" stroke-width="2" opacity="0.6"/><line x1="395" y1="360" x2="404" y2="359" stroke="#6a4730" stroke-width="2" opacity="0.6"/><line x1="458" y1="590" x2="470" y2="589" stroke="#6a4730" stroke-width="2" opacity="0.6"/><line x1="493" y1="363" x2="499" y2="366" stroke="#8a6043" stroke-width="2" opacity="0.6"/><line x1="639" y1="297" x2="649" y2="294" stroke="#6a4730" stroke-width="2" opacity="0.6"/><line x1="719" y1="439" x2="726" y2="439" stroke="#6a4730" stroke-width="2" opacity="0.6"/><line x1="732" y1="592" x2="738" y2="591" stroke="#8a6043" stroke-width="2" opacity="0.6"/><line x1="560" y1="583" x2="574" y2="585" stroke="#6a4730" stroke-width="2" opacity="0.6"/><line x1="522" y1="496" x2="534" y2="494" stroke="#6a4730" stroke-width="2" opacity="0.6"/><line x1="634" y1="377" x2="638" y2="377" stroke="#8a6043" stroke-width="2" opacity="0.6"/><line x1="96" y1="493" x2="106" y2="493" stroke="#6a4730" stroke-width="2" opacity="0.6"/><line x1="656" y1="247" x2="660" y2="246" stroke="#6a4730" stroke-width="2" opacity="0.6"/><line x1="31" y1="364" x2="41" y2="363" stroke="#8a6043" stroke-width="2" opacity="0.6"/><line x1="790" y1="580" x2="800" y2="584" stroke="#6a4730" stroke-width="2" opacity="0.6"/><line x1="602" y1="521" x2="615" y2="522" stroke="#6a4730" stroke-width="2" opacity="0.6"/><line x1="647" y1="522" x2="655" y2="523" stroke="#8a6043" stroke-width="2" opacity="0.6"/><line x1="705" y1="423" x2="710" y2="425" stroke="#6a4730" stroke-width="2" opacity="0.6"/><line x1="677" y1="264" x2="688" y2="268" stroke="#6a4730" stroke-width="2" opacity="0.6"/><line x1="463" y1="463" x2="471" y2="465" stroke="#8a6043" stroke-width="2" opacity="0.6"/><line x1="303" y1="411" x2="310" y2="409" stroke="#6a4730" stroke-width="2" opacity="0.6"/><line x1="97" y1="515" x2="111" y2="514" stroke="#6a4730" stroke-width="2" opacity="0.6"/><line x1="333" y1="303" x2="338" y2="303" stroke="#8a6043" stroke-width="2" opacity="0.6"/><line x1="303" y1="234" x2="314" y2="234" stroke="#6a4730" stroke-width="2" opacity="0.6"/><line x1="327" y1="301" x2="334" y2="302" stroke="#6a4730" stroke-width="2" opacity="0.6"/><line x1="472" y1="237" x2="485" y2="236" stroke="#8a6043" stroke-width="2" opacity="0.6"/><line x1="409" y1="284" x2="416" y2="285" stroke="#6a4730" stroke-width="2" opacity="0.6"/><line x1="766" y1="306" x2="772" y2="308" stroke="#6a4730" stroke-width="2" opacity="0.6"/><line x1="220" y1="249" x2="231" y2="250" stroke="#8a6043" stroke-width="2" opacity="0.6"/><line x1="319" y1="547" x2="333" y2="547" stroke="#6a4730" stroke-width="2" opacity="0.6"/><line x1="401" y1="274" x2="405" y2="272" stroke="#6a4730" stroke-width="2" opacity="0.6"/><line x1="630" y1="493" x2="637" y2="493" stroke="#8a6043" stroke-width="2" opacity="0.6"/><line x1="558" y1="463" x2="569" y2="460" stroke="#6a4730" stroke-width="2" opacity="0.6"/><line x1="244" y1="228" x2="250" y2="230" stroke="#6a4730" stroke-width="2" opacity="0.6"/><line x1="458" y1="394" x2="470" y2="398" stroke="#8a6043" stroke-width="2" opacity="0.6"/><line x1="692" y1="577" x2="704" y2="580" stroke="#6a4730" stroke-width="2" opacity="0.6"/><line x1="773" y1="280" x2="787" y2="280" stroke="#6a4730" stroke-width="2" opacity="0.6"/><line x1="694" y1="215" x2="705" y2="215" stroke="#8a6043" stroke-width="2" opacity="0.6"/><line x1="369" y1="307" x2="377" y2="308" stroke="#6a4730" stroke-width="2" opacity="0.6"/><line x1="491" y1="542" x2="496" y2="541" stroke="#6a4730" stroke-width="2" opacity="0.6"/><line x1="659" y1="231" x2="663" y2="231" stroke="#8a6043" stroke-width="2" opacity="0.6"/><line x1="578" y1="566" x2="586" y2="565" stroke="#6a4730" stroke-width="2" opacity="0.6"/><line x1="37" y1="441" x2="41" y2="440" stroke="#6a4730" stroke-width="2" opacity="0.6"/><line x1="11" y1="330" x2="19" y2="330" stroke="#8a6043" stroke-width="2" opacity="0.6"/><line x1="239" y1="505" x2="245" y2="504" stroke="#6a4730" stroke-width="2" opacity="0.6"/><line x1="77" y1="482" x2="86" y2="479" stroke="#6a4730" stroke-width="2" opacity="0.6"/><line x1="592" y1="411" x2="601" y2="409" stroke="#8a6043" stroke-width="2" opacity="0.6"/><line x1="232" y1="489" x2="238" y2="490" stroke="#6a4730" stroke-width="2" opacity="0.6"/><line x1="564" y1="524" x2="578" y2="521" stroke="#6a4730" stroke-width="2" opacity="0.6"/><line x1="90" y1="266" x2="96" y2="266" stroke="#8a6043" stroke-width="2" opacity="0.6"/><line x1="733" y1="564" x2="746" y2="564" stroke="#6a4730" stroke-width="2" opacity="0.6"/><line x1="32" y1="314" x2="44" y2="318" stroke="#6a4730" stroke-width="2" opacity="0.6"/><line x1="339" y1="521" x2="348" y2="523" stroke="#8a6043" stroke-width="2" opacity="0.6"/><line x1="361" y1="423" x2="373" y2="426" stroke="#6a4730" stroke-width="2" opacity="0.6"/><line x1="462" y1="493" x2="472" y2="494" stroke="#6a4730" stroke-width="2" opacity="0.6"/><line x1="317" y1="438" x2="329" y2="435" stroke="#8a6043" stroke-width="2" opacity="0.6"/><line x1="194" y1="572" x2="205" y2="572" stroke="#6a4730" stroke-width="2" opacity="0.6"/><line x1="330" y1="563" x2="338" y2="560" stroke="#6a4730" stroke-width="2" opacity="0.6"/><g>
      <circle cx="128" cy="187.71003894494385" r="40.72490263764043" fill="#496e59"/>
      <circle cx="107.63754868117978" cy="199.92750973623598" r="28.5074318463483" fill="#6a8a2d"/>
      <circle cx="148.3624513188202" cy="199.92750973623598" r="28.5074318463483" fill="#496e59"/>
    </g><circle cx="122" cy="180" r="3" fill="#7b9e36"/><circle cx="140" cy="190" r="3" fill="#7b9e36"/><circle cx="112" cy="173" r="3" fill="#7b9e36"/><circle cx="120" cy="195" r="3" fill="#7b9e36"/><g>
      <circle cx="304" cy="186.35426606906313" r="44.114334827342226" fill="#496e59"/>
      <circle cx="281.9428325863289" cy="199.5885665172658" r="30.880034379139556" fill="#6a8a2d"/>
      <circle cx="326.0571674136711" cy="199.5885665172658" r="30.880034379139556" fill="#496e59"/>
    </g><circle cx="324" cy="186" r="3" fill="#7b9e36"/><circle cx="317" cy="187" r="3" fill="#7b9e36"/><circle cx="313" cy="176" r="3" fill="#7b9e36"/><circle cx="294" cy="166" r="3" fill="#7b9e36"/><g>
      <circle cx="480" cy="186.41725725420625" r="43.95685686448443" fill="#496e59"/>
      <circle cx="458.0215715677578" cy="199.60431431355158" r="30.769799805139098" fill="#6a8a2d"/>
      <circle cx="501.9784284322422" cy="199.60431431355158" r="30.769799805139098" fill="#496e59"/>
    </g><circle cx="471" cy="200" r="3" fill="#7b9e36"/><circle cx="458" cy="183" r="3" fill="#7b9e36"/><circle cx="473" cy="206" r="3" fill="#7b9e36"/><circle cx="462" cy="182" r="3" fill="#7b9e36"/><g>
      <circle cx="656" cy="184.64764660813273" r="48.38088347966824" fill="#496e59"/>
      <circle cx="631.8095582601659" cy="199.1619116520332" r="33.86661843576777" fill="#6a8a2d"/>
      <circle cx="680.1904417398341" cy="199.1619116520332" r="33.86661843576777" fill="#496e59"/>
    </g><circle cx="668" cy="198" r="3" fill="#7b9e36"/><circle cx="632" cy="169" r="3" fill="#7b9e36"/><circle cx="634" cy="168" r="3" fill="#7b9e36"/><circle cx="654" cy="205" r="3" fill="#7b9e36"/></svg>
