<svg xmlns="http://www.w3.org/2000/svg" viewBox="0 0 800 600" width="800" height="600" role="img"><defs><linearGradient id="bsky26" x1="0" y1="0" x2="0" y2="1">
    <stop offset="0" stop-color="#dfe7d4"/><stop offset="1" stop-color="#edf0ec"/>
  </linearGradient></defs><rect width="800" height="600" fill="url(#bsky26)"/><rect width="800" height="204.00000000000003" fill="#edf0ec"/><rect y="192.00000000000003" width="800" height="12" fill="#5b665f" opacity="0.3"/><defs><linearGradient id="mulch26" x1="0" y1="0" x2="0" y2="1">
      <stop offset="0" stop-color="#7a5238"/><stop offset="1" stop-color="#5a3a28"/></linearGradient></defs><rect y="204.00000000000003" width="800" height="396" fill="url(#mulch26)"/><line x1="0" y1="370" x2="10" y2="374" stroke="#8a6043" stroke-width="2" opacity="0.6"/><line x1="682" y1="478" x2="688" y2="479" stroke="#6a4730" stroke-width="2" opacity="0.6"/><line x1="529" y1="324" x2="543" y2="324" stroke="#6a4730" stroke-width="2" opacity="0.6"/><line x1="484" y1="560" x2="492" y2="562" stroke="#8a6043" stroke-width="2" opacity="0.6"/><line x1="360" y1="283" x2="373" y2="286" stroke="#6a4730" stroke-width="2" opacity="0.6"/><line x1="684" y1="543" x2="691" y2="541" stroke="#6a4730" stroke-width="2" opacity="0.6"/><line x1="0" y1="481" x2="8" y2="478" stroke="#8a6043" stroke-width="2" opacity="0.6"/><line x1="653" y1="295" x2="663" y2="298" stroke="#6a4730" stroke-width="2" opacity="0.6"/><line x1="659" y1="297" x2="664" y2="297" stroke="#6a4730" stroke-width="2" opacity="0.6"/><line x1="359" y1="468" x2="371" y2="468" stroke="#8a6043" stroke-width="2" opacity="0.6"/><line x1="338" y1="420" x2="350" y2="421" stroke="#6a4730" stroke-width="2" opacity="0.6"/><line x1="752" y1="556" x2="759" y2="553" stroke="#6a4730" stroke-width="2" opacity="0.6"/><line x1="72" y1="341" x2="86" y2="340" stroke="#8a6043" stroke-width="2" opacity="0.6"/><line x1="146" y1="262" x2="153" y2="261" stroke="#6a4730" stroke-width="2" opacity="0.6"/><line x1="520" y1="338" x2="530" y2="339" stroke="#6a4730" stroke-width="2" opacity="0.6"/><line x1="417" y1="251" x2="425" y2="249" stroke="#8a6043" stroke-width="2" opacity="0.6"/><line x1="522" y1="538" x2="535" y2="536" stroke="#6a4730" stroke-width="2" opacity="0.6"/><line x1="513" y1="567" x2="517" y2="569" stroke="#6a4730" stroke-width="2" opacity="0.6"/><line x1="163" y1="505" x2="174" y2="501" stroke="#8a6043" stroke-width="2" opacity="0.6"/><line x1="372" y1="324" x2="384" y2="319" stroke="#6a4730" stroke-width="2" opacity="0.6"/><line x1="419" y1="307" x2="426" y2="309" stroke="#6a4730" stroke-width="2" opacity="0.6"/><line x1="460" y1="350" x2="465" y2="351" stroke="#8a6043" stroke-width="2" opacity="0.6"/><line x1="789" y1="245" x2="793" y2="246" stroke="#6a4730" stroke-width="2" opacity="0.6"/><line x1="101" y1="341" x2="108" y2="344" stroke="#6a4730" stroke-width="2" opacity="0.6"/><line x1="571" y1="552" x2="575" y2="553" stroke="#8a6043" stroke-width="2" opacity="0.6"/><line x1="776" y1="270" x2="785" y2="271" stroke="#6a4730" stroke-width="2" opacity="0.6"/><line x1="797" y1="546" x2="809" y2="549" stroke="#6a4730" stroke-width="2" opacity="0.6"/><line x1="717" y1="584" x2="729" y2="584" stroke="#8a6043" stroke-width="2" opacity="0.6"/><line x1="335" y1="267" x2="341" y2="269" stroke="#6a4730" stroke-width="2" opacity="0.6"/><line x1="123" y1="414" x2="133" y2="414" stroke="#6a4730" stroke-width="2" opacity="0.6"/><line x1="293" y1="259" x2="297" y2="260" stroke="#8a6043" stroke-width="2" opacity="0.6"/><line x1="559" y1="384" x2="567" y2="383" stroke="#6a4730" stroke-width="2" opacity="0.6"/><line x1="563" y1="305" x2="567" y2="307" stroke="#6a4730" stroke-width="2" opacity="0.6"/><line x1="727" y1="487" x2="731" y2="486" stroke="#8a6043" stroke-width="2" opacity="0.6"/><line x1="795" y1="535" x2="801" y2="538" stroke="#6a4730" stroke-width="2" opacity="0.6"/><line x1="274" y1="537" x2="283" y2="539" stroke="#6a4730" stroke-width="2" opacity="0.6"/><line x1="453" y1="453" x2="463" y2="454" stroke="#8a6043" stroke-width="2" opacity="0.6"/><line x1="444" y1="482" x2="449" y2="484" stroke="#6a4730" stroke-width="2" opacity="0.6"/><line x1="221" y1="281" x2="228" y2="280" stroke="#6a4730" stroke-width="2" opacity="0.6"/><line x1="236" y1="573" x2="241" y2="575" stroke="#8a6043" stroke-width="2" opacity="0.6"/><line x1="355" y1="357" x2="360" y2="356" stroke="#6a4730" stroke-width="2" opacity="0.6"/><line x1="590" y1="380" x2="595" y2="380" stroke="#6a4730" stroke-width="2" opacity="0.6"/><line x1="508" y1="469" x2="515" y2="466" stroke="#8a6043" stroke-width="2" opacity="0.6"/><line x1="317" y1="290" x2="330" y2="290" stroke="#6a4730" stroke-width="2" opacity="0.6"/><line x1="464" y1="407" x2="471" y2="409" stroke="#6a4730" stroke-width="2" opacity="0.6"/><line x1="70" y1="505" x2="74" y2="504" stroke="#8a6043" stroke-width="2" opacity="0.6"/><line x1="754" y1="440" x2="765" y2="441" stroke="#6a4730" stroke-width="2" opacity="0.6"/><line x1="403" y1="355" x2="409" y2="354" stroke="#6a4730" stroke-width="2" opacity="0.6"/><line x1="488" y1="306" x2="498" y2="302" stroke="#8a6043" stroke-width="2" opacity="0.6"/><line x1="588" y1="383" x2="597" y2="382" stroke="#6a4730" stroke-width="2" opacity="0.6"/><line x1="731" y1="306" x2="741" y2="309" stroke="#6a4730" stroke-width="2" opacity="0.6"/><line x1="106" y1="411" x2="120" y2="409" stroke="#8a6043" stroke-width="2" opacity="0.6"/><line x1="551" y1="507" x2="565" y2="510" stroke="#6a4730" stroke-width="2" opacity="0.6"/><line x1="353" y1="589" x2="363" y2="590" stroke="#6a4730" stroke-width="2" opacity="0.6"/><line x1="655" y1="350" x2="662" y2="350" stroke="#8a6043" stroke-width="2" opacity="0.6"/><line x1="29" y1="461" x2="34" y2="462" stroke="#6a4730" stroke-width="2" opacity="0.6"/><line x1="439" y1="486" x2="447" y2="488" stroke="#6a4730" stroke-width="2" opacity="0.6"/><line x1="151" y1="534" x2="159" y2="531" stroke="#8a6043" stroke-width="2" opacity="0.6"/><line x1="114" y1="449" x2="125" y2="451" stroke="#6a4730" stroke-width="2" opacity="0.6"/><line x1="483" y1="440" x2="489" y2="440" stroke="#6a4730" stroke-width="2" opacity="0.6"/><line x1="735" y1="375" x2="740" y2="377" stroke="#8a6043" stroke-width="2" opacity="0.6"/><line x1="395" y1="402" x2="408" y2="407" stroke="#6a4730" stroke-width="2" opacity="0.6"/><line x1="314" y1="214" x2="318" y2="212" stroke="#6a4730" stroke-width="2" opacity="0.6"/><line x1="86" y1="565" x2="92" y2="567" stroke="#8a6043" stroke-width="2" opacity="0.6"/><line x1="596" y1="479" x2="603" y2="481" stroke="#6a4730" stroke-width="2" opacity="0.6"/><line x1="346" y1="420" x2="354" y2="418" stroke="#6a4730" stroke-width="2" opacity="0.6"/><line x1="691" y1="350" x2="701" y2="350" stroke="#8a6043" stroke-width="2" opacity="0.6"/><line x1="86" y1="247" x2="98" y2="249" stroke="#6a4730" stroke-width="2" opacity="0.6"/><line x1="109" y1="600" x2="123" y2="599" stroke="#6a4730" stroke-width="2" opacity="0.6"/><line x1="159" y1="355" x2="173" y2="353" stroke="#8a6043" stroke-width="2" opacity="0.6"/><line x1="35" y1="321" x2="48" y2="321" stroke="#6a4730" stroke-width="2" opacity="0.6"/><line x1="276" y1="328" x2="286" y2="327" stroke="#6a4730" stroke-width="2" opacity="0.6"/><line x1="501" y1="441" x2="510" y2="438" stroke="#8a6043" stroke-width="2" opacity="0.6"/><line x1="549" y1="476" x2="554" y2="476" stroke="#6a4730" stroke-width="2" opacity="0.6"/><line x1="564" y1="403" x2="569" y2="404" stroke="#6a4730" stroke-width="2" opacity="0.6"/><line x1="82" y1="432" x2="90" y2="432" stroke="#8a6043" stroke-width="2" opacity="0.6"/><line x1="374" y1="423" x2="387" y2="421" stroke="#6a4730" stroke-width="2" opacity="0.6"/><line x1="157" y1="225" x2="169" y2="227" stroke="#6a4730" stroke-width="2" opacity="0.6"/><line x1="321" y1="318" x2="331" y2="316" stroke="#8a6043" stroke-width="2" opacity="0.6"/><line x1="575" y1="285" x2="585" y2="284" stroke="#6a4730" stroke-width="2" opacity="0.6"/><line x1="116" y1="393" x2="122" y2="392" stroke="#6a4730" stroke-width="2" opacity="0.6"/><line x1="415" y1="498" x2="420" y2="497" stroke="#8a6043" stroke-width="2" opacity="0.6"/><line x1="376" y1="284" x2="387" y2="285" stroke="#6a4730" stroke-width="2" opacity="0.6"/><line x1="175" y1="449" x2="182" y2="446" stroke="#6a4730" stroke-width="2" opacity="0.6"/><line x1="209" y1="218" x2="219" y2="219" stroke="#8a6043" stroke-width="2" opacity="0.6"/><line x1="373" y1="435" x2="380" y2="437" stroke="#6a4730" stroke-width="2" opacity="0.6"/><line x1="592" y1="427" x2="606" y2="427" stroke="#6a4730" stroke-width="2" opacity="0.6"/><line x1="288" y1="589" x2="297" y2="587" stroke="#8a6043" stroke-width="2" opacity="0.6"/><line x1="358" y1="500" x2="368" y2="503" stroke="#6a4730" stroke-width="2" opacity="0.6"/><line x1="338" y1="576" x2="343" y2="576" stroke="#6a4730" stroke-width="2" opacity="0.6"/><g>
      <circle cx="128" cy="185.75917445950174" r="45.60206385124571" fill="#496e59"/>
      <circle cx="105.19896807437715" cy="199.43979361487547" r="31.921444695871994" fill="#6a8a2d"/>
      <circle cx="150.80103192562285" cy="199.43979361487547" r="31.921444695871994" fill="#496e59"/>
    </g><circle cx="123" cy="169" r="3" fill="#7b9e36"/><circle cx="138" cy="172" r="3" fill="#7b9e36"/><circle cx="145" cy="205" r="3" fill="#7b9e36"/><circle cx="115" cy="182" r="3" fill="#7b9e36"/><g>
      <circle cx="304" cy="184.22656164328876" r="49.43359589177817" fill="#496e59"/>
      <circle cx="279.2832020541109" cy="199.0566404108222" r="34.60351712424472" fill="#6a8a2d"/>
      <circle cx="328.7167979458891" cy="199.0566404108222" r="34.60351712424472" fill="#496e59"/>
    </g><circle cx="281" cy="202" r="3" fill="#7b9e36"/><circle cx="291" cy="188" r="3" fill="#7b9e36"/><circle cx="288" cy="178" r="3" fill="#7b9e36"/><circle cx="299" cy="177" r="3" fill="#7b9e36"/><g>
      <circle cx="480" cy="187.428203852581" r="41.42949036854761" fill="#496e59"/>
      <circle cx="459.2852548157262" cy="199.85705096314527" r="29.000643257983327" fill="#6a8a2d"/>
      <circle cx="500.7147451842738" cy="199.85705096314527" r="29.000643257983327" fill="#496e59"/>
    </g><circle cx="482" cy="199" r="3" fill="#7b9e36"/><circle cx="463" cy="178" r="3" fill="#7b9e36"/><circle cx="484" cy="185" r="3" fill="#7b9e36"/><circle cx="464" cy="204" r="3" fill="#7b9e36"/><g>
      <circle cx="656" cy="187.68864399180222" r="40.778390020494534" fill="#496e59"/>
      <circle cx="635.6108049897528" cy="199.92216099795058" r="28.544873014346173" fill="#6a8a2d"/>
      <circle cx="676.3891950102472" cy="199.92216099795058" r="28.544873014346173" fill="#496e59"/>
    </g><circle cx="645" cy="187" r="3" fill="#7b9e36"/><circle cx="650" cy="184" r="3" fill="#7b9e36"/><circle cx="650" cy="174" r="3" fill="#7b9e36"/><circle cx="644" cy="187" r="3" fill="#7b9e36"/></svg>
