<svg xmlns="http://www.w3.org/2000/svg" viewBox="0 0 800 600" width="800" height="600" role="img"><defs>
    <linearGradient id="sky21" x1="0" y1="0" x2="0" y2="1">
      <stop offset="0" stop-color="#dfe7d4"/>
      <stop offset="1" stop-color="#f4ead2"/>
    </linearGradient>
    <linearGradient id="grass21" x1="0" y1="0" x2="0" y2="1">
      <stop offset="0" stop-color="#496e59"/>
      <stop offset="1" stop-color="#6a8a2d"/>
    </linearGradient>
  </defs><rect width="800" height="600" fill="url(#sky21)"/><circle cx="640" cy="138.60000000000002" r="78" fill="#f7efd9" opacity="0.9"/><path d="M0 252 L0.0 244.0 L80.0 221.1 L160.0 218.0 L240.0 225.1 L320.0 238.4 L400.0 226.1 L480.0 214.4 L560.0 236.3 L640.0 236.0 L720.0 225.1 L800.0 242.4 L800 252 Z" fill="#496e59" opacity="0.55"/><rect y="252" width="800" height="348" fill="url(#grass21)"/><path d="M200 252 L600 252 L653.3333333333333 290.6666666666667 L146.66666666666669 290.6666666666667 Z" fill="#7b9e36" opacity="0.8"/><path d="M93.33333333333337 329.3333333333333 L706.6666666666666 329.3333333333333 L760 368 L40.00000000000006 368 Z" fill="#7b9e36" opacity="0.8"/><path d="M-13.333333333333258 406.66666666666663 L813.3333333333333 406.66666666666663 L866.6666666666666 445.33333333333337 L-66.66666666666663 445.33333333333337 Z" fill="#7b9e36" opacity="0.8"/><path d="M-119.99999999999989 484 L919.9999999999999 484 L973.3333333333334 522.6666666666667 L-173.33333333333337 522.6666666666667 Z" fill="#7b9e36" opacity="0.8"/><path d="M-226.66666666666663 561.3333333333333 L1026.6666666666665 561.3333333333333 L1080 600 L-280 600 Z" fill="#7b9e36" opacity="0.8"/><g opacity="0.85">
      <rect x="64" y="156" width="208" height="96" fill="#25352c"/>
      <path d="M54 156 L168 108 L282 156 Z" fill="#1a2620"/>
      <rect x="101.44" y="189.6" width="37.44" height="43.2" fill="#f4ead2" opacity="0.85"/>
      <rect x="188.8" y="189.6" width="37.44" height="43.2" fill="#f4ead2" opacity="0.85"/>
    </g><g opacity="0.95">
      <rect x="682" y="222" width="12" height="378" fill="#5a3a28"/>
      <circle cx="688" cy="182" r="58" fill="#496e59"/>
      <circle cx="648" cy="212" r="42" fill="#6a8a2d"/>
      <circle cx="726" cy="207" r="40" fill="#496e59"/>
    </g></svg>
