<svg xmlns="http://www.w3.org/2000/svg" viewBox="0 0 1600 1000" width="1600" height="1000" role="img"><defs>
    <linearGradient id="sky31" x1="0" y1="0" x2="0" y2="1">
      <stop offset="0" stop-color="#dfe7d4"/>
      <stop offset="1" stop-color="#f4ead2"/>
    </linearGradient>
    <linearGradient id="grass31" x1="0" y1="0" x2="0" y2="1">
      <stop offset="0" stop-color="#496e59"/>
      <stop offset="1" stop-color="#6a8a2d"/>
    </linearGradient>
  </defs><rect width="1600" height="1000" fill="url(#sky31)"/><circle cx="1280" cy="231.00000000000003" r="130" fill="#f7efd9" opacity="0.9"/><path d="M0 420 L0.0 412.0 L160.0 409.7 L320.0 399.3 L480.0 405.5 L640.0 396.5 L800.0 388.4 L960.0 398.2 L1120.0 410.7 L1280.0 410.3 L1440.0 382.7 L1600.0 385.3 L1600 420 Z" fill="#496e59" opacity="0.55"/><rect y="420" width="1600" height="580" fill="url(#grass31)"/><path d="M400 420 L1200 420 L1306.6666666666665 484.44444444444446 L293.33333333333337 484.44444444444446 Z" fill="#7b9e36" opacity="0.8"/><path d="M186.66666666666674 548.8888888888889 L1413.3333333333333 548.8888888888889 L1520 613.3333333333333 L80.00000000000011 613.3333333333333 Z" fill="#7b9e36" opacity="0.8"/><path d="M-26.666666666666515 677.7777777777778 L1626.6666666666665 677.7777777777778 L1733.3333333333333 742.2222222222222 L-133.33333333333326 742.2222222222222 Z" fill="#7b9e36" opacity="0.8"/><path d="M-239.99999999999977 806.6666666666666 L1839.9999999999998 806.6666666666666 L1946.6666666666667 871.1111111111111 L-346.66666666666674 871.1111111111111 Z" fill="#7b9e36" opacity="0.8"/><path d="M-453.33333333333326 935.5555555555555 L2053.333333333333 935.5555555555555 L2160 1000 L-560 1000 Z" fill="#7b9e36" opacity="0.8"/><g opacity="0.85">
      <rect x="128" y="260" width="416" height="160" fill="#25352c"/>
      <path d="M118 260 L336 180 L554 260 Z" fill="#1a2620"/>
      <rect x="202.88" y="316" width="74.88" height="72" fill="#f4ead2" opacity="0.85"/>
      <rect x="377.6" y="316" width="74.88" height="72" fill="#f4ead2" opacity="0.85"/>
    </g><g opacity="0.95">
      <rect x="1370" y="390" width="12" height="610" fill="#5a3a28"/>
      <circle cx="1376" cy="350" r="58" fill="#496e59"/>
      <circle cx="1336" cy="380" r="42" fill="#6a8a2d"/>
      <circle cx="1414" cy="375" r="40" fill="#496e59"/>
    </g></svg>
