<svg xmlns="http://www.w3.org/2000/svg" viewBox="0 0 900 600" width="900" height="600" role="img"><defs><linearGradient id="bsky7" x1="0" y1="0" x2="0" y2="1">
    <stop offset="0" stop-color="#dfe7d4"/><stop offset="1" stop-color="#edf0ec"/>
  </linearGradient></defs><rect width="900" height="600" fill="url(#bsky7)"/><rect width="900" height="204.00000000000003" fill="#edf0ec"/><rect y="192.00000000000003" width="900" height="12" fill="#5b665f" opacity="0.3"/><defs><linearGradient id="mulch7" x1="0" y1="0" x2="0" y2="1">
      <stop offset="0" stop-color="#7a5238"/><stop offset="1" stop-color="#5a3a28"/></linearGradient></defs><rect y="204.00000000000003" width="900" height="396" fill="url(#mulch7)"/><line x1="0" y1="569" x2="7" y2="567" stroke="#8a6043" stroke-width="2" opacity="0.6"/><line x1="656" y1="415" x2="664" y2="416" stroke="#6a4730" stroke-width="2" opacity="0.6"/><line x1="680" y1="419" x2="690" y2="420" stroke="#6a4730" stroke-width="2" opacity="0.6"/><line x1="735" y1="300" x2="743" y2="301" stroke="#8a6043" stroke-width="2" opacity="0.6"/><line x1="628" y1="225" x2="639" y2="225" stroke="#6a4730" stroke-width="2" opacity="0.6"/><line x1="830" y1="524" x2="835" y2="524" stroke="#6a4730" stroke-width="2" opacity="0.6"/><line x1="831" y1="477" x2="841" y2="477" stroke="#8a6043" stroke-width="2" opacity="0.6"/><line x1="821" y1="564" x2="828" y2="563" stroke="#6a4730" stroke-width="2" opacity="0.6"/><line x1="753" y1="336" x2="759" y2="335" stroke="#6a4730" stroke-width="2" opacity="0.6"/><line x1="386" y1="321" x2="399" y2="321" stroke="#8a6043" stroke-width="2" opacity="0.6"/><line x1="656" y1="552" x2="661" y2="551" stroke="#6a4730" stroke-width="2" opacity="0.6"/><line x1="505" y1="405" x2="513" y2="403" stroke="#6a4730" stroke-width="2" opacity="0.6"/><line x1="818" y1="226" x2="826" y2="225" stroke="#8a6043" stroke-width="2" opacity="0.6"/><line x1="598" y1="570" x2="607" y2="568" stroke="#6a4730" stroke-width="2" opacity="0.6"/><line x1="365" y1="316" x2="373" y2="316" stroke="#6a4730" stroke-width="2" opacity="0.6"/><line x1="299" y1="415" x2="309" y2="412" stroke="#8a6043" stroke-width="2" opacity="0.6"/><line x1="816" y1="385" x2="828" y2="387" stroke="#6a4730" stroke-width="2" opacity="0.6"/><line x1="571" y1="408" x2="580" y2="410" stroke="#6a4730" stroke-width="2" opacity="0.6"/><line x1="846" y1="361" x2="856" y2="359" stroke="#8a6043" stroke-width="2" opacity="0.6"/><line x1="528" y1="343" x2="535" y2="342" stroke="#6a4730" stroke-width="2" opacity="0.6"/><line x1="715" y1="552" x2="720" y2="553" stroke="#6a4730" stroke-width="2" opacity="0.6"/><line x1="70" y1="365" x2="75" y2="363" stroke="#8a6043" stroke-width="2" opacity="0.6"/><line x1="897" y1="291" x2="906" y2="288" stroke="#6a4730" stroke-width="2" opacity="0.6"/><line x1="411" y1="439" x2="416" y2="441" stroke="#6a4730" stroke-width="2" opacity="0.6"/><line x1="796" y1="557" x2="808" y2="561" stroke="#8a6043" stroke-width="2" opacity="0.6"/><line x1="685" y1="313" x2="689" y2="312" stroke="#6a4730" stroke-width="2" opacity="0.6"/><line x1="68" y1="205" x2="78" y2="202" stroke="#6a4730" stroke-width="2" opacity="0.6"/><line x1="667" y1="398" x2="678" y2="396" stroke="#8a6043" stroke-width="2" opacity="0.6"/><line x1="794" y1="297" x2="801" y2="300" stroke="#6a4730" stroke-width="2" opacity="0.6"/><line x1="107" y1="398" x2="110" y2="399" stroke="#6a4730" stroke-width="2" opacity="0.6"/><line x1="573" y1="569" x2="577" y2="570" stroke="#8a6043" stroke-width="2" opacity="0.6"/><line x1="169" y1="588" x2="179" y2="589" stroke="#6a4730" stroke-width="2" opacity="0.6"/><line x1="240" y1="292" x2="246" y2="293" stroke="#6a4730" stroke-width="2" opacity="0.6"/><line x1="47" y1="509" x2="58" y2="511" stroke="#8a6043" stroke-width="2" opacity="0.6"/><line x1="448" y1="217" x2="453" y2="219" stroke="#6a4730" stroke-width="2" opacity="0.6"/><line x1="118" y1="476" x2="130" y2="472" stroke="#6a4730" stroke-width="2" opacity="0.6"/><line x1="795" y1="545" x2="808" y2="550" stroke="#8a6043" stroke-width="2" opacity="0.6"/><line x1="688" y1="370" x2="695" y2="371" stroke="#6a4730" stroke-width="2" opacity="0.6"/><line x1="794" y1="362" x2="800" y2="361" stroke="#6a4730" stroke-width="2" opacity="0.6"/><line x1="798" y1="425" x2="806" y2="426" stroke="#8a6043" stroke-width="2" opacity="0.6"/><line x1="661" y1="337" x2="673" y2="336" stroke="#6a4730" stroke-width="2" opacity="0.6"/><line x1="179" y1="327" x2="192" y2="333" stroke="#6a4730" stroke-width="2" opacity="0.6"/><line x1="569" y1="549" x2="582" y2="546" stroke="#8a6043" stroke-width="2" opacity="0.6"/><line x1="581" y1="258" x2="590" y2="258" stroke="#6a4730" stroke-width="2" opacity="0.6"/><line x1="694" y1="579" x2="703" y2="576" stroke="#6a4730" stroke-width="2" opacity="0.6"/><line x1="402" y1="270" x2="413" y2="270" stroke="#8a6043" stroke-width="2" opacity="0.6"/><line x1="505" y1="405" x2="517" y2="403" stroke="#6a4730" stroke-width="2" opacity="0.6"/><line x1="676" y1="214" x2="683" y2="215" stroke="#6a4730" stroke-width="2" opacity="0.6"/><line x1="182" y1="490" x2="189" y2="489" stroke="#8a6043" stroke-width="2" opacity="0.6"/><line x1="594" y1="374" x2="598" y2="375" stroke="#6a4730" stroke-width="2" opacity="0.6"/><line x1="741" y1="567" x2="754" y2="568" stroke="#6a4730" stroke-width="2" opacity="0.6"/><line x1="863" y1="214" x2="875" y2="215" stroke="#8a6043" stroke-width="2" opacity="0.6"/><line x1="652" y1="560" x2="656" y2="558" stroke="#6a4730" stroke-width="2" opacity="0.6"/><line x1="72" y1="247" x2="77" y2="245" stroke="#6a4730" stroke-width="2" opacity="0.6"/><line x1="545" y1="579" x2="550" y2="577" stroke="#8a6043" stroke-width="2" opacity="0.6"/><line x1="182" y1="471" x2="188" y2="471" stroke="#6a4730" stroke-width="2" opacity="0.6"/><line x1="895" y1="371" x2="905" y2="374" stroke="#6a4730" stroke-width="2" opacity="0.6"/><line x1="357" y1="369" x2="362" y2="368" stroke="#8a6043" stroke-width="2" opacity="0.6"/><line x1="727" y1="590" x2="732" y2="592" stroke="#6a4730" stroke-width="2" opacity="0.6"/><line x1="458" y1="252" x2="464" y2="253" stroke="#6a4730" stroke-width="2" opacity="0.6"/><line x1="153" y1="235" x2="160" y2="236" stroke="#8a6043" stroke-width="2" opacity="0.6"/><line x1="500" y1="394" x2="514" y2="390" stroke="#6a4730" stroke-width="2" opacity="0.6"/><line x1="372" y1="329" x2="376" y2="327" stroke="#6a4730" stroke-width="2" opacity="0.6"/><line x1="372" y1="240" x2="378" y2="242" stroke="#8a6043" stroke-width="2" opacity="0.6"/><line x1="700" y1="507" x2="708" y2="509" stroke="#6a4730" stroke-width="2" opacity="0.6"/><line x1="866" y1="521" x2="877" y2="522" stroke="#6a4730" stroke-width="2" opacity="0.6"/><line x1="313" y1="365" x2="322" y2="365" stroke="#8a6043" stroke-width="2" opacity="0.6"/><line x1="511" y1="490" x2="521" y2="491" stroke="#6a4730" stroke-width="2" opacity="0.6"/><line x1="656" y1="554" x2="668" y2="559" stroke="#6a4730" stroke-width="2" opacity="0.6"/><line x1="394" y1="397" x2="407" y2="402" stroke="#8a6043" stroke-width="2" opacity="0.6"/><line x1="322" y1="235" x2="329" y2="238" stroke="#6a4730" stroke-width="2" opacity="0.6"/><line x1="638" y1="496" x2="651" y2="499" stroke="#6a4730" stroke-width="2" opacity="0.6"/><line x1="186" y1="298" x2="198" y2="295" stroke="#8a6043" stroke-width="2" opacity="0.6"/><line x1="824" y1="521" x2="834" y2="523" stroke="#6a4730" stroke-width="2" opacity="0.6"/><line x1="482" y1="379" x2="495" y2="380" stroke="#6a4730" stroke-width="2" opacity="0.6"/><line x1="786" y1="311" x2="797" y2="311" stroke="#8a6043" stroke-width="2" opacity="0.6"/><line x1="356" y1="278" x2="365" y2="276" stroke="#6a4730" stroke-width="2" opacity="0.6"/><line x1="809" y1="530" x2="816" y2="531" stroke="#6a4730" stroke-width="2" opacity="0.6"/><line x1="790" y1="250" x2="796" y2="252" stroke="#8a6043" stroke-width="2" opacity="0.6"/><line x1="1" y1="256" x2="9" y2="253" stroke="#6a4730" stroke-width="2" opacity="0.6"/><line x1="624" y1="560" x2="629" y2="558" stroke="#6a4730" stroke-width="2" opacity="0.6"/><line x1="853" y1="481" x2="858" y2="479" stroke="#8a6043" stroke-width="2" opacity="0.6"/><line x1="564" y1="210" x2="576" y2="211" stroke="#6a4730" stroke-width="2" opacity="0.6"/><line x1="676" y1="255" x2="683" y2="256" stroke="#6a4730" stroke-width="2" opacity="0.6"/><line x1="860" y1="421" x2="869" y2="423" stroke="#8a6043" stroke-width="2" opacity="0.6"/><line x1="632" y1="495" x2="642" y2="491" stroke="#6a4730" stroke-width="2" opacity="0.6"/><line x1="41" y1="447" x2="47" y2="447" stroke="#6a4730" stroke-width="2" opacity="0.6"/><line x1="226" y1="292" x2="236" y2="293" stroke="#8a6043" stroke-width="2" opacity="0.6"/><line x1="732" y1="299" x2="744" y2="294" stroke="#6a4730" stroke-width="2" opacity="0.6"/><line x1="622" y1="365" x2="633" y2="367" stroke="#6a4730" stroke-width="2" opacity="0.6"/><g>
      <circle cx="144" cy="184.7813162006351" r="48.046709498412305" fill="#496e59"/>
      <circle cx="119.97664525079385" cy="199.1953290501588" r="33.63269664888861" fill="#6a8a2d"/>
      <circle cx="168.02335474920616" cy="199.1953290501588" r="33.63269664888861" fill="#496e59"/>
    </g><circle cx="125" cy="205" r="3" fill="#7b9e36"/><circle cx="144" cy="200" r="3" fill="#7b9e36"/><circle cx="140" cy="202" r="3" fill="#7b9e36"/><circle cx="158" cy="196" r="3" fill="#7b9e36"/><g>
      <circle cx="342" cy="184.36868967319316" r="49.0782758170172" fill="#496e59"/>
      <circle cx="317.4608620914914" cy="199.0921724182983" r="34.354793071912034" fill="#6a8a2d"/>
      <circle cx="366.5391379085086" cy="199.0921724182983" r="34.354793071912034" fill="#496e59"/>
    </g><circle cx="360" cy="169" r="3" fill="#7b9e36"/><circle cx="353" cy="167" r="3" fill="#7b9e36"/><circle cx="324" cy="206" r="3" fill="#7b9e36"/><circle cx="364" cy="163" r="3" fill="#7b9e36"/><g>
      <circle cx="540" cy="187.69220872954105" r="40.76947817614744" fill="#496e59"/>
      <circle cx="519.6152609119263" cy="199.92305218238528" r="28.538634723303204" fill="#6a8a2d"/>
      <circle cx="560.3847390880737" cy="199.92305218238528" r="28.538634723303204" fill="#496e59"/>
    </g><circle cx="530" cy="206" r="3" fill="#7b9e36"/><circle cx="555" cy="206" r="3" fill="#7b9e36"/><circle cx="531" cy="175" r="3" fill="#7b9e36"/><circle cx="521" cy="186" r="3" fill="#7b9e36"/><g>
      <circle cx="738" cy="185.76232722856216" r="45.59418192859468" fill="#496e59"/>
      <circle cx="715.2029090357026" cy="199.44058180714057" r="31.915927350016272" fill="#6a8a2d"/>
      <circle cx="760.7970909642974" cy="199.44058180714057" r="31.915927350016272" fill="#496e59"/>
    </g><circle cx="722" cy="178" r="3" fill="#7b9e36"/><circle cx="737" cy="173" r="3" fill="#7b9e36"/><circle cx="718" cy="165" r="3" fill="#7b9e36"/><circle cx="719" cy="192" r="3" fill="#7b9e36"/></svg>
